<svg xmlns="http://www.w3.org/2000/svg" xmlns:xlink="http://www.w3.org/1999/xlink" version="1.1" width="256" height="256" viewBox="0 0 256 256" xml:space="preserve">

<defs>
</defs>
<g style="stroke: none; stroke-width: 0; stroke-dasharray: none; stroke-linecap: butt; stroke-linejoin: miter; stroke-miterlimit: 10; fill: none; fill-rule: nonzero; opacity: 1;" transform="translate(1.4065934065934016 1.4065934065934016) scale(2.81 2.81)" >
	<path d="M 12.746 35.222 c -0.427 0 -0.822 -0.275 -0.955 -0.705 c -0.164 -0.528 0.132 -1.088 0.659 -1.251 c 3.662 -1.134 8.012 -2.062 12.928 -2.757 c 0.544 -0.076 1.053 0.303 1.13 0.85 s -0.303 1.053 -0.85 1.13 c -4.812 0.681 -9.056 1.584 -12.617 2.687 C 12.943 35.208 12.844 35.222 12.746 35.222 z" style="stroke: none; stroke-width: 1; stroke-dasharray: none; stroke-linecap: butt; stroke-linejoin: miter; stroke-miterlimit: 10; fill: rgba(7, 190, 175, 0.534); fill-rule: nonzero; opacity: 1;" transform=" matrix(1 0 0 1 0 0) " stroke-linecap="round" />
	<path d="M 77.772 35.222 c -0.098 0 -0.197 -0.015 -0.296 -0.045 c -1.478 -0.458 -3.105 -0.889 -4.839 -1.281 c -0.539 -0.122 -0.877 -0.657 -0.755 -1.196 c 0.122 -0.539 0.658 -0.88 1.196 -0.754 c 1.784 0.404 3.462 0.848 4.989 1.321 c 0.527 0.163 0.822 0.723 0.659 1.251 C 78.595 34.947 78.199 35.222 77.772 35.222 z" style="stroke: none; stroke-width: 1; stroke-dasharray: none; stroke-linecap: butt; stroke-linejoin: miter; stroke-miterlimit: 10; fill: rgba(7, 190, 175, 0.534); fill-rule: nonzero; opacity: 1;" transform=" matrix(1 0 0 1 0 0) " stroke-linecap="round" />
	<path d="M 37.958 31.23 c -0.532 0 -0.975 -0.42 -0.998 -0.957 c -0.024 -0.552 0.404 -1.018 0.956 -1.042 c 4.37 -0.189 8.941 -0.201 13.369 -0.033 c 0.552 0.021 0.982 0.486 0.961 1.038 s -0.486 0.974 -1.037 0.961 c -4.374 -0.167 -8.891 -0.155 -13.207 0.032 C 37.987 31.229 37.973 31.23 37.958 31.23 z" style="stroke: none; stroke-width: 1; stroke-dasharray: none; stroke-linecap: butt; stroke-linejoin: miter; stroke-miterlimit: 10; fill: rgba(7, 190, 175, 0.534); fill-rule: nonzero; opacity: 1;" transform=" matrix(1 0 0 1 0 0) " stroke-linecap="round" />
	<path d="M 22.071 44.914 c -0.233 0 -0.462 -0.082 -0.644 -0.234 c -0.226 -0.19 -0.356 -0.47 -0.356 -0.766 v -5.872 c 0 -0.486 0.35 -0.902 0.828 -0.985 c 2.206 -0.384 4.546 -0.717 6.957 -0.989 c 0.281 -0.033 0.566 0.059 0.778 0.248 c 0.212 0.189 0.333 0.461 0.333 0.746 v 5.872 c 0 0.509 -0.382 0.937 -0.888 0.994 c -2.377 0.269 -4.677 0.596 -6.837 0.972 C 22.186 44.909 22.128 44.914 22.071 44.914 z M 23.071 38.887 v 3.845 c 1.576 -0.256 3.215 -0.486 4.896 -0.688 v -3.857 C 26.286 38.391 24.646 38.625 23.071 38.887 z" style="stroke: none; stroke-width: 1; stroke-dasharray: none; stroke-linecap: butt; stroke-linejoin: miter; stroke-miterlimit: 10; fill: rgba(7, 190, 175, 0.534); fill-rule: nonzero; opacity: 1;" transform=" matrix(1 0 0 1 0 0) " stroke-linecap="round" />
	<path d="M 15.536 84.674 c -0.079 0 -0.157 -0.009 -0.235 -0.028 C 8.321 82.959 0 79.902 0 74.922 V 34.365 C 0 26.061 23.185 21.58 45 21.58 c 21.814 0 45 4.481 45 12.786 c 0 4.8 -7.728 7.813 -14.536 9.535 v 39.774 c 0 0.553 -0.447 1 -1 1 s -1 -0.447 -1 -1 V 43.117 c 0 -0.462 0.316 -0.864 0.765 -0.972 C 82.724 40.092 88 37.111 88 34.365 c 0 -5.102 -17.659 -10.786 -43 -10.786 c -25.34 0 -43 5.684 -43 10.786 c 0 2.746 5.276 5.727 13.771 7.78 c 0.449 0.108 0.765 0.51 0.765 0.972 v 40.557 c 0 0.307 -0.141 0.597 -0.381 0.786 C 15.976 84.6 15.758 84.674 15.536 84.674 z M 2 38.357 v 36.565 c 0 2.61 4.768 5.433 12.536 7.469 V 43.9 C 9.855 42.716 4.74 40.922 2 38.357 z" style="stroke: none; stroke-width: 1; stroke-dasharray: none; stroke-linecap: butt; stroke-linejoin: miter; stroke-miterlimit: 10; fill: rgba(7, 190, 175, 0.534); fill-rule: nonzero; opacity: 1;" transform=" matrix(1 0 0 1 0 0) " stroke-linecap="round" />
	<path d="M 15.535 67.169 c -0.451 0 -0.86 -0.308 -0.971 -0.765 c -0.129 -0.537 0.201 -1.078 0.737 -1.207 c 8.167 -1.974 18.714 -3.061 29.699 -3.061 c 10.984 0 21.532 1.087 29.699 3.061 c 0.537 0.129 0.867 0.67 0.737 1.206 c -0.129 0.537 -0.675 0.872 -1.206 0.737 c -8.019 -1.937 -18.399 -3.004 -29.23 -3.004 c -10.832 0 -21.212 1.067 -29.229 3.004 C 15.691 67.16 15.613 67.169 15.535 67.169 z" style="stroke: none; stroke-width: 1; stroke-dasharray: none; stroke-linecap: butt; stroke-linejoin: miter; stroke-miterlimit: 10; fill: rgba(7, 190, 175, 0.534); fill-rule: nonzero; opacity: 1;" transform=" matrix(1 0 0 1 0 0) " stroke-linecap="round" />
	<path d="M 74.463 84.674 c -0.451 0 -0.86 -0.308 -0.971 -0.765 c -0.13 -0.537 0.2 -1.077 0.736 -1.207 C 82.724 80.648 88 77.668 88 74.922 V 34.365 c 0 -0.552 0.447 -1 1 -1 s 1 0.448 1 1 v 40.557 c 0 4.98 -8.321 8.037 -15.301 9.724 C 74.62 84.665 74.541 84.674 74.463 84.674 z" style="stroke: none; stroke-width: 1; stroke-dasharray: none; stroke-linecap: butt; stroke-linejoin: miter; stroke-miterlimit: 10; fill: rgba(7, 190, 175, 0.534); fill-rule: nonzero; opacity: 1;" transform=" matrix(1 0 0 1 0 0) " stroke-linecap="round" />
	<path d="M 26.208 58.935 c -0.151 0 -0.303 -0.034 -0.444 -0.104 c -0.34 -0.168 -0.556 -0.516 -0.556 -0.896 v -7.834 c 0 -0.331 0.164 -0.641 0.437 -0.826 c 0.273 -0.188 0.622 -0.228 0.929 -0.104 l 6.787 2.671 c 0.336 0.133 0.575 0.436 0.625 0.793 c 0.049 0.358 -0.098 0.715 -0.385 0.934 l -6.787 5.163 C 26.637 58.865 26.423 58.935 26.208 58.935 z M 27.208 51.568 v 4.349 l 3.768 -2.865 L 27.208 51.568 z" style="stroke: none; stroke-width: 1; stroke-dasharray: none; stroke-linecap: butt; stroke-linejoin: miter; stroke-miterlimit: 10; fill: rgba(7, 190, 175, 0.534); fill-rule: nonzero; opacity: 1;" transform=" matrix(1 0 0 1 0 0) " stroke-linecap="round" />
	<path d="M 49.757 46.025 h -6.57 c -0.446 0 -0.838 -0.294 -0.961 -0.723 l -1.832 -6.371 h -0.821 c -0.552 0 -1 -0.448 -1 -1 s 0.448 -1 1 -1 h 1.574 c 0.446 0 0.838 0.295 0.961 0.724 l 1.832 6.371 h 5.072 l 0.936 -3.136 h -4.443 c -0.552 0 -1 -0.448 -1 -1 s 0.448 -1 1 -1 h 5.785 c 0.315 0 0.613 0.149 0.802 0.402 c 0.188 0.253 0.247 0.581 0.156 0.884 l -1.532 5.136 C 50.589 45.735 50.199 46.025 49.757 46.025 z" style="stroke: none; stroke-width: 1; stroke-dasharray: none; stroke-linecap: butt; stroke-linejoin: miter; stroke-miterlimit: 10; fill: rgba(7, 190, 175, 0.534); fill-rule: nonzero; opacity: 1;" transform=" matrix(1 0 0 1 0 0) " stroke-linecap="round" />
	<path d="M 42.66 49.319 c -0.26 0 -0.52 -0.1 -0.71 -0.3 c -0.18 -0.18 -0.29 -0.43 -0.29 -0.7 c 0 -0.13 0.03 -0.26 0.08 -0.38 c 0.05 -0.13 0.12 -0.239 0.21 -0.33 c 0.1 -0.09 0.2 -0.159 0.33 -0.21 c 0.37 -0.159 0.81 -0.069 1.09 0.21 c 0.09 0.091 0.16 0.2 0.21 0.33 c 0.06 0.12 0.08 0.25 0.08 0.38 c 0 0.271 -0.1 0.521 -0.29 0.7 C 43.18 49.22 42.93 49.319 42.66 49.319 z" style="stroke: none; stroke-width: 1; stroke-dasharray: none; stroke-linecap: butt; stroke-linejoin: miter; stroke-miterlimit: 10; fill: rgba(7, 190, 175, 0.534); fill-rule: nonzero; opacity: 1;" transform=" matrix(1 0 0 1 0 0) " stroke-linecap="round" />
	<path d="M 50.319 49.319 c -0.27 0 -0.52 -0.109 -0.71 -0.289 c -0.189 -0.19 -0.29 -0.44 -0.29 -0.711 c 0 -0.26 0.101 -0.52 0.29 -0.71 c 0.37 -0.369 1.04 -0.369 1.41 0 c 0.19 0.19 0.3 0.45 0.3 0.71 c 0 0.271 -0.109 0.521 -0.3 0.711 C 50.84 49.21 50.59 49.319 50.319 49.319 z" style="stroke: none; stroke-width: 1; stroke-dasharray: none; stroke-linecap: butt; stroke-linejoin: miter; stroke-miterlimit: 10; fill: rgba(7, 190, 175, 0.534); fill-rule: nonzero; opacity: 1;" transform=" matrix(1 0 0 1 0 0) " stroke-linecap="round" />
	<path d="M 61.07 59.342 c -0.117 0 -0.234 -0.006 -0.354 -0.018 c -1.674 -0.169 -2.986 -1.466 -2.986 -2.952 c 0 -0.693 0.288 -1.336 0.812 -1.81 c 0.608 -0.549 1.475 -0.807 2.378 -0.72 c 1.674 0.169 2.985 1.466 2.985 2.952 c 0 0.693 -0.288 1.336 -0.813 1.81 C 62.565 59.081 61.842 59.342 61.07 59.342 z M 60.566 55.825 c -0.277 0 -0.525 0.079 -0.684 0.222 c -0.103 0.093 -0.152 0.199 -0.152 0.325 c 0 0.397 0.508 0.894 1.188 0.962 c 0.329 0.036 0.646 -0.046 0.834 -0.214 c 0.103 -0.093 0.152 -0.199 0.152 -0.325 c 0 -0.397 -0.508 -0.894 -1.188 -0.962 C 60.667 55.827 60.616 55.825 60.566 55.825 z" style="stroke: none; stroke-width: 1; stroke-dasharray: none; stroke-linecap: butt; stroke-linejoin: miter; stroke-miterlimit: 10; fill: rgba(7, 190, 175, 0.534); fill-rule: nonzero; opacity: 1;" transform=" matrix(1 0 0 1 0 0) " stroke-linecap="round" />
	<path d="M 62.905 57.795 c -0.552 0 -1 -0.447 -1 -1 l -0.001 -8.486 c 0 -0.307 0.141 -0.597 0.382 -0.786 s 0.558 -0.256 0.854 -0.186 c 1.988 0.482 3.081 2.765 3.222 4.23 c 0.053 0.55 -0.35 1.038 -0.899 1.091 c -0.544 0.05 -1.038 -0.349 -1.091 -0.899 c -0.035 -0.363 -0.198 -0.891 -0.468 -1.368 l 0.001 6.404 C 63.905 57.347 63.458 57.795 62.905 57.795 z" style="stroke: none; stroke-width: 1; stroke-dasharray: none; stroke-linecap: butt; stroke-linejoin: miter; stroke-miterlimit: 10; fill: rgba(7, 190, 175, 0.534); fill-rule: nonzero; opacity: 1;" transform=" matrix(1 0 0 1 0 0) " stroke-linecap="round" />
	<path d="M 64.404 36.306 c -0.103 0 -0.207 -0.006 -0.311 -0.018 c -1.477 -0.17 -2.633 -1.462 -2.633 -2.942 v -0.724 c 0 -0.754 0.299 -1.436 0.843 -1.919 c 0.538 -0.48 1.277 -0.706 2.019 -0.62 c 1.477 0.17 2.634 1.462 2.634 2.942 v 0.724 c 0 0.753 -0.299 1.435 -0.842 1.919 C 65.65 36.081 65.041 36.306 64.404 36.306 z M 64.008 32.065 c -0.147 0 -0.277 0.045 -0.374 0.131 c -0.113 0.101 -0.173 0.248 -0.173 0.426 v 0.724 c 0 0.456 0.402 0.902 0.861 0.955 l 0 0 c 0.179 0.019 0.345 -0.024 0.461 -0.126 c 0.113 -0.101 0.173 -0.248 0.173 -0.426 v -0.724 c 0 -0.456 -0.402 -0.902 -0.862 -0.955 C 64.064 32.067 64.036 32.065 64.008 32.065 z" style="stroke: none; stroke-width: 1; stroke-dasharray: none; stroke-linecap: butt; stroke-linejoin: miter; stroke-miterlimit: 10; fill: rgba(7, 190, 175, 0.534); fill-rule: nonzero; opacity: 1;" transform=" matrix(1 0 0 1 0 0) " stroke-linecap="round" />
	<path d="M 67.208 40.882 c -0.553 0 -1 -0.448 -1 -1 V 38.64 c 0 -1.143 -0.969 -2.22 -2.114 -2.352 c -0.518 -0.062 -0.995 0.08 -1.348 0.393 c -0.347 0.309 -0.537 0.759 -0.537 1.268 v 1.243 c 0 0.552 -0.447 1 -1 1 s -1 -0.448 -1 -1 v -1.243 c 0 -1.087 0.429 -2.067 1.206 -2.761 c 0.784 -0.698 1.814 -1.013 2.907 -0.887 c 2.179 0.251 3.886 2.157 3.886 4.339 v 1.243 C 68.208 40.435 67.761 40.882 67.208 40.882 z" style="stroke: none; stroke-width: 1; stroke-dasharray: none; stroke-linecap: butt; stroke-linejoin: miter; stroke-miterlimit: 10; fill: rgba(7, 190, 175, 0.534); fill-rule: nonzero; opacity: 1;" transform=" matrix(1 0 0 1 0 0) " stroke-linecap="round" />
	<path d="M 50.319 57.222 c -0.012 0 -0.022 0 -0.033 -0.001 c -1.725 -0.056 -3.503 -0.084 -5.286 -0.084 c -0.552 0 -1 -0.447 -1 -1 s 0.448 -1 1 -1 c 1.805 0 3.605 0.028 5.351 0.086 c 0.552 0.018 0.985 0.479 0.967 1.031 C 51.3 56.795 50.856 57.222 50.319 57.222 z" style="stroke: none; stroke-width: 1; stroke-dasharray: none; stroke-linecap: butt; stroke-linejoin: miter; stroke-miterlimit: 10; fill: rgba(7, 190, 175, 0.534); fill-rule: nonzero; opacity: 1;" transform=" matrix(1 0 0 1 0 0) " stroke-linecap="round" />
	<path d="M 84.964 19.303 c -0.168 0 -0.337 -0.042 -0.49 -0.128 c -4.683 -2.633 -13.263 -4.752 -23.54 -5.813 c -0.55 -0.057 -0.949 -0.548 -0.893 -1.097 c 0.058 -0.55 0.537 -0.953 1.098 -0.892 c 9.237 0.954 16.938 2.689 22.077 4.951 l -0.715 -2.056 c -0.182 -0.521 0.094 -1.092 0.616 -1.273 c 0.519 -0.183 1.091 0.093 1.272 0.616 l 1.519 4.365 c 0.137 0.393 0.017 0.829 -0.303 1.096 C 85.422 19.224 85.193 19.303 84.964 19.303 z" style="stroke: none; stroke-width: 1; stroke-dasharray: none; stroke-linecap: butt; stroke-linejoin: miter; stroke-miterlimit: 10; fill: rgba(7, 190, 175, 0.534); fill-rule: nonzero; opacity: 1;" transform=" matrix(1 0 0 1 0 0) " stroke-linecap="round" />
	<path d="M 80.8 20.811 c -0.409 0 -0.793 -0.253 -0.94 -0.66 c -0.188 -0.52 0.081 -1.093 0.601 -1.281 l 4.164 -1.507 c 0.519 -0.186 1.093 0.081 1.28 0.6 s -0.081 1.093 -0.601 1.281 L 81.14 20.75 C 81.027 20.791 80.913 20.811 80.8 20.811 z" style="stroke: none; stroke-width: 1; stroke-dasharray: none; stroke-linecap: butt; stroke-linejoin: miter; stroke-miterlimit: 10; fill: rgba(7, 190, 175, 0.534); fill-rule: nonzero; opacity: 1;" transform=" matrix(1 0 0 1 0 0) " stroke-linecap="round" />
	<path d="M 5.036 19.303 c -0.229 0 -0.458 -0.079 -0.642 -0.233 c -0.319 -0.267 -0.439 -0.703 -0.303 -1.096 l 1.519 -4.365 c 0.181 -0.521 0.75 -0.799 1.273 -0.616 c 0.521 0.181 0.797 0.751 0.616 1.273 l -0.715 2.056 c 5.14 -2.261 12.84 -3.997 22.078 -4.951 c 0.545 -0.058 1.041 0.343 1.097 0.892 s -0.342 1.041 -0.892 1.097 c -10.277 1.062 -18.857 3.181 -23.54 5.813 C 5.373 19.261 5.204 19.303 5.036 19.303 z" style="stroke: none; stroke-width: 1; stroke-dasharray: none; stroke-linecap: butt; stroke-linejoin: miter; stroke-miterlimit: 10; fill: rgba(7, 190, 175, 0.534); fill-rule: nonzero; opacity: 1;" transform=" matrix(1 0 0 1 0 0) " stroke-linecap="round" />
	<path d="M 9.2 20.811 c -0.113 0 -0.228 -0.02 -0.34 -0.06 l -4.164 -1.507 c -0.519 -0.188 -0.788 -0.761 -0.6 -1.281 c 0.188 -0.519 0.76 -0.788 1.281 -0.6 l 4.164 1.507 c 0.519 0.188 0.788 0.761 0.6 1.281 C 9.993 20.557 9.609 20.811 9.2 20.811 z" style="stroke: none; stroke-width: 1; stroke-dasharray: none; stroke-linecap: butt; stroke-linejoin: miter; stroke-miterlimit: 10; fill: rgba(7, 190, 175, 0.534); fill-rule: nonzero; opacity: 1;" transform=" matrix(1 0 0 1 0 0) " stroke-linecap="round" />
	<path d="M 35.883 12.452 H 34.44 c -0.552 0 -1 -0.448 -1 -1 s 0.448 -1 1 -1 h 1.443 c 0.862 0 1.563 -0.701 1.563 -1.563 c 0 -0.861 -0.701 -1.563 -1.563 -1.563 H 33.32 c -0.552 0 -1 -0.448 -1 -1 s 0.448 -1 1 -1 h 2.563 c 1.965 0 3.563 1.598 3.563 3.563 S 37.848 12.452 35.883 12.452 z" style="stroke: none; stroke-width: 1; stroke-dasharray: none; stroke-linecap: butt; stroke-linejoin: miter; stroke-miterlimit: 10; fill: rgba(7, 190, 175, 0.534); fill-rule: nonzero; opacity: 1;" transform=" matrix(1 0 0 1 0 0) " stroke-linecap="round" />
	<path d="M 35.883 17.578 H 33.32 c -0.552 0 -1 -0.448 -1 -1 s 0.448 -1 1 -1 h 2.563 c 0.862 0 1.563 -0.701 1.563 -1.563 s -0.701 -1.563 -1.563 -1.563 H 34.44 c -0.552 0 -1 -0.448 -1 -1 s 0.448 -1 1 -1 h 1.443 c 1.965 0 3.563 1.598 3.563 3.563 S 37.848 17.578 35.883 17.578 z" style="stroke: none; stroke-width: 1; stroke-dasharray: none; stroke-linecap: butt; stroke-linejoin: miter; stroke-miterlimit: 10; fill: rgba(7, 190, 175, 0.534); fill-rule: nonzero; opacity: 1;" transform=" matrix(1 0 0 1 0 0) " stroke-linecap="round" />
	<path d="M 45.012 17.578 c -1.965 0 -3.563 -1.598 -3.563 -3.563 s 1.598 -3.563 3.563 -3.563 s 3.563 1.598 3.563 3.563 S 46.977 17.578 45.012 17.578 z M 45.012 12.452 c -0.862 0 -1.563 0.701 -1.563 1.563 s 0.701 1.563 1.563 1.563 c 0.861 0 1.563 -0.701 1.563 -1.563 S 45.873 12.452 45.012 12.452 z" style="stroke: none; stroke-width: 1; stroke-dasharray: none; stroke-linecap: butt; stroke-linejoin: miter; stroke-miterlimit: 10; fill: rgba(7, 190, 175, 0.534); fill-rule: nonzero; opacity: 1;" transform=" matrix(1 0 0 1 0 0) " stroke-linecap="round" />
	<path d="M 42.756 13.796 c -0.128 0 -0.258 -0.025 -0.384 -0.078 c -0.51 -0.212 -0.751 -0.798 -0.538 -1.308 l 2.697 -6.469 c 0.212 -0.509 0.795 -0.752 1.308 -0.538 c 0.51 0.212 0.75 0.798 0.539 1.308 L 43.68 13.18 C 43.52 13.564 43.148 13.796 42.756 13.796 z" style="stroke: none; stroke-width: 1; stroke-dasharray: none; stroke-linecap: butt; stroke-linejoin: miter; stroke-miterlimit: 10; fill: rgba(7, 190, 175, 0.534); fill-rule: nonzero; opacity: 1;" transform=" matrix(1 0 0 1 0 0) " stroke-linecap="round" />
	<path d="M 54.117 17.578 c -1.965 0 -3.563 -1.598 -3.563 -3.563 V 8.889 c 0 -1.964 1.599 -3.563 3.563 -3.563 s 3.563 1.598 3.563 3.563 v 5.126 C 57.68 15.979 56.082 17.578 54.117 17.578 z M 54.117 7.326 c -0.862 0 -1.563 0.701 -1.563 1.563 v 5.126 c 0 0.862 0.701 1.563 1.563 1.563 c 0.861 0 1.563 -0.701 1.563 -1.563 V 8.889 C 55.68 8.027 54.979 7.326 54.117 7.326 z" style="stroke: none; stroke-width: 1; stroke-dasharray: none; stroke-linecap: butt; stroke-linejoin: miter; stroke-miterlimit: 10; fill: rgba(7, 190, 175, 0.534); fill-rule: nonzero; opacity: 1;" transform=" matrix(1 0 0 1 0 0) " stroke-linecap="round" />
</g>
</svg>