<svg xmlns="http://www.w3.org/2000/svg" xmlns:xlink="http://www.w3.org/1999/xlink" version="1.1" width="256" height="256" viewBox="0 0 256 256" xml:space="preserve">

<defs>
</defs>
<g style="stroke: none; stroke-width: 0; stroke-dasharray: none; stroke-linecap: butt; stroke-linejoin: miter; stroke-miterlimit: 10; fill: none; fill-rule: nonzero; opacity: 1;" transform="translate(1.4065934065934016 1.4065934065934016) scale(2.81 2.81)" >
	<path d="M 51.815 28.641 c -1.865 -4.355 -4.382 -6.883 -6.815 -6.883 c -2.436 0 -4.956 2.533 -6.821 6.898 c 2.178 0.508 4.468 1.251 6.815 2.226 C 47.31 29.919 49.605 29.161 51.815 28.641 z" style="stroke: none; stroke-width: 1; stroke-dasharray: none; stroke-linecap: butt; stroke-linejoin: miter; stroke-miterlimit: 10; fill: rgba(7, 190, 175, 0.534); fill-rule: nonzero; opacity: 1;" transform=" matrix(1 0 0 1 0 0) " stroke-linecap="round" />
	<path d="M 38.657 55.985 c -0.87 -0.502 -1.711 -1.021 -2.527 -1.551 c 0.283 1.485 0.631 2.869 1.029 4.146 c 1.308 -0.294 2.683 -0.686 4.113 -1.185 C 40.398 56.951 39.524 56.486 38.657 55.985 z" style="stroke: none; stroke-width: 1; stroke-dasharray: none; stroke-linecap: butt; stroke-linejoin: miter; stroke-miterlimit: 10; fill: rgba(7, 190, 175, 0.534); fill-rule: nonzero; opacity: 1;" transform=" matrix(1 0 0 1 0 0) " stroke-linecap="round" />
	<path d="M 41.251 32.614 c -1.423 -0.494 -2.794 -0.893 -4.095 -1.186 c -0.397 1.275 -0.743 2.655 -1.026 4.136 c 0.816 -0.53 1.658 -1.048 2.527 -1.55 C 39.517 33.518 40.383 33.056 41.251 32.614 z" style="stroke: none; stroke-width: 1; stroke-dasharray: none; stroke-linecap: butt; stroke-linejoin: miter; stroke-miterlimit: 10; fill: rgba(7, 190, 175, 0.534); fill-rule: nonzero; opacity: 1;" transform=" matrix(1 0 0 1 0 0) " stroke-linecap="round" />
	<path d="M 51.343 34.014 c 0.867 0.5 1.706 1.024 2.529 1.559 c -0.281 -1.475 -0.625 -2.852 -1.02 -4.122 c -1.33 0.297 -2.697 0.686 -4.088 1.166 C 49.622 33.055 50.482 33.517 51.343 34.014 z" style="stroke: none; stroke-width: 1; stroke-dasharray: none; stroke-linecap: butt; stroke-linejoin: miter; stroke-miterlimit: 10; fill: rgba(7, 190, 175, 0.534); fill-rule: nonzero; opacity: 1;" transform=" matrix(1 0 0 1 0 0) " stroke-linecap="round" />
	<path d="M 32.767 37.937 c 0.329 -2.517 0.83 -4.872 1.478 -7.011 c -0.905 -0.108 -1.78 -0.182 -2.584 -0.182 c -3.378 0 -5.807 0.933 -6.789 2.635 c -1.217 2.108 -0.285 5.554 2.557 9.349 C 28.959 41.095 30.749 39.482 32.767 37.937 z" style="stroke: none; stroke-width: 1; stroke-dasharray: none; stroke-linecap: butt; stroke-linejoin: miter; stroke-miterlimit: 10; fill: rgba(7, 190, 175, 0.534); fill-rule: nonzero; opacity: 1;" transform=" matrix(1 0 0 1 0 0) " stroke-linecap="round" />
	<path d="M 29.318 45 c 0.907 0.983 1.932 1.976 3.076 2.964 c -0.051 -0.972 -0.079 -1.96 -0.079 -2.964 c 0 -1.004 0.028 -1.992 0.079 -2.964 C 31.25 43.024 30.225 44.017 29.318 45 z" style="stroke: none; stroke-width: 1; stroke-dasharray: none; stroke-linecap: butt; stroke-linejoin: miter; stroke-miterlimit: 10; fill: rgba(7, 190, 175, 0.534); fill-rule: nonzero; opacity: 1;" transform=" matrix(1 0 0 1 0 0) " stroke-linecap="round" />
	<path d="M 27.429 47.272 c -2.843 3.795 -3.775 7.241 -2.558 9.349 c 1.218 2.108 4.667 3.024 9.375 2.46 c -0.649 -2.141 -1.151 -4.498 -1.48 -7.018 C 30.749 50.518 28.959 48.904 27.429 47.272 z" style="stroke: none; stroke-width: 1; stroke-dasharray: none; stroke-linecap: butt; stroke-linejoin: miter; stroke-miterlimit: 10; fill: rgba(7, 190, 175, 0.534); fill-rule: nonzero; opacity: 1;" transform=" matrix(1 0 0 1 0 0) " stroke-linecap="round" />
	<path d="M 60.636 45 c -0.915 -0.994 -1.928 -1.973 -3.028 -2.93 c 0.05 0.961 0.077 1.937 0.077 2.93 c 0 0.992 -0.027 1.969 -0.077 2.93 C 58.709 46.973 59.721 45.993 60.636 45 z" style="stroke: none; stroke-width: 1; stroke-dasharray: none; stroke-linecap: butt; stroke-linejoin: miter; stroke-miterlimit: 10; fill: rgba(7, 190, 175, 0.534); fill-rule: nonzero; opacity: 1;" transform=" matrix(1 0 0 1 0 0) " stroke-linecap="round" />
	<path d="M 65.128 33.379 c -1.171 -2.028 -4.381 -2.943 -8.802 -2.504 c -0.184 0.018 -0.377 0.053 -0.563 0.076 c 0.645 2.134 1.144 4.483 1.472 6.993 c 1.978 1.515 3.77 3.113 5.317 4.755 c 0.111 -0.149 0.237 -0.297 0.344 -0.445 C 65.484 38.641 66.299 35.406 65.128 33.379 z" style="stroke: none; stroke-width: 1; stroke-dasharray: none; stroke-linecap: butt; stroke-linejoin: miter; stroke-miterlimit: 10; fill: rgba(7, 190, 175, 0.534); fill-rule: nonzero; opacity: 1;" transform=" matrix(1 0 0 1 0 0) " stroke-linecap="round" />
	<path d="M 48.767 57.384 c 1.39 0.479 2.756 0.868 4.085 1.165 c 0.394 -1.27 0.738 -2.647 1.02 -4.122 c -0.823 0.535 -1.662 1.059 -2.529 1.559 C 50.483 56.482 49.624 56.946 48.767 57.384 z" style="stroke: none; stroke-width: 1; stroke-dasharray: none; stroke-linecap: butt; stroke-linejoin: miter; stroke-miterlimit: 10; fill: rgba(7, 190, 175, 0.534); fill-rule: nonzero; opacity: 1;" transform=" matrix(1 0 0 1 0 0) " stroke-linecap="round" />
	<path d="M 38.181 61.349 c 1.865 4.362 4.384 6.893 6.819 6.893 c 2.433 0 4.95 -2.527 6.815 -6.883 c -2.211 -0.52 -4.509 -1.28 -6.828 -2.244 C 42.645 60.087 40.355 60.842 38.181 61.349 z" style="stroke: none; stroke-width: 1; stroke-dasharray: none; stroke-linecap: butt; stroke-linejoin: miter; stroke-miterlimit: 10; fill: rgba(7, 190, 175, 0.534); fill-rule: nonzero; opacity: 1;" transform=" matrix(1 0 0 1 0 0) " stroke-linecap="round" />
	<path d="M 62.552 47.301 c -1.547 1.642 -3.34 3.24 -5.318 4.755 c -0.328 2.51 -0.827 4.859 -1.472 6.994 c 0.186 0.023 0.379 0.058 0.563 0.076 c 4.417 0.437 7.631 -0.477 8.802 -2.504 s 0.356 -5.262 -2.232 -8.875 C 62.789 47.597 62.663 47.449 62.552 47.301 z" style="stroke: none; stroke-width: 1; stroke-dasharray: none; stroke-linecap: butt; stroke-linejoin: miter; stroke-miterlimit: 10; fill: rgba(7, 190, 175, 0.534); fill-rule: nonzero; opacity: 1;" transform=" matrix(1 0 0 1 0 0) " stroke-linecap="round" />
	<path d="M 49.859 36.583 c -1.648 -0.952 -3.266 -1.769 -4.844 -2.478 c -1.625 0.724 -3.258 1.545 -4.874 2.478 c -1.654 0.955 -3.174 1.951 -4.581 2.966 c -0.176 1.726 -0.279 3.54 -0.279 5.45 c 0 1.91 0.103 3.725 0.279 5.45 c 1.406 1.015 2.926 2.011 4.581 2.966 c 1.616 0.933 3.249 1.753 4.874 2.478 c 1.578 -0.709 3.195 -1.525 4.844 -2.478 c 1.616 -0.933 3.142 -1.937 4.582 -2.982 c 0.175 -1.721 0.277 -3.53 0.277 -5.434 c 0 -1.904 -0.102 -3.714 -0.277 -5.435 C 53.002 38.52 51.475 37.516 49.859 36.583 z M 45 49.051 c -2.237 0 -4.051 -1.814 -4.051 -4.051 c 0 -2.237 1.814 -4.051 4.051 -4.051 s 4.051 1.814 4.051 4.051 C 49.051 47.237 47.237 49.051 45 49.051 z" style="stroke: none; stroke-width: 1; stroke-dasharray: none; stroke-linecap: butt; stroke-linejoin: miter; stroke-miterlimit: 10; fill: rgba(7, 190, 175, 0.534); fill-rule: nonzero; opacity: 1;" transform=" matrix(1 0 0 1 0 0) " stroke-linecap="round" />
	<path d="M 88.516 39.329 c 0.819 0 1.484 -0.664 1.484 -1.484 s -0.664 -1.484 -1.484 -1.484 h -7.963 V 25.019 h 7.963 c 0.819 0 1.484 -0.664 1.484 -1.484 s -0.664 -1.484 -1.484 -1.484 h -7.963 v -3.1 c 0 -5.241 -4.264 -9.505 -9.506 -9.505 h -3.099 V 1.484 c 0 -0.82 -0.664 -1.484 -1.484 -1.484 c -0.819 0 -1.483 0.664 -1.483 1.484 v 7.964 H 53.638 V 1.484 c 0 -0.82 -0.664 -1.484 -1.484 -1.484 c -0.819 0 -1.483 0.664 -1.483 1.484 v 7.964 H 39.329 V 1.484 c 0 -0.82 -0.664 -1.484 -1.483 -1.484 c -0.82 0 -1.484 0.664 -1.484 1.484 v 7.964 H 25.019 V 1.484 c 0 -0.82 -0.664 -1.484 -1.484 -1.484 c -0.819 0 -1.484 0.664 -1.484 1.484 v 7.964 h -3.1 c -5.241 0 -9.505 4.264 -9.505 9.505 v 3.1 H 1.484 C 0.664 22.052 0 22.716 0 23.536 s 0.664 1.484 1.484 1.484 h 7.964 v 11.342 H 1.484 C 0.664 36.362 0 37.026 0 37.845 s 0.664 1.484 1.484 1.484 h 7.964 v 11.343 H 1.484 C 0.664 50.671 0 51.336 0 52.155 s 0.664 1.484 1.484 1.484 h 7.964 v 11.343 H 1.484 C 0.664 64.981 0 65.646 0 66.465 s 0.664 1.484 1.484 1.484 h 7.964 v 3.099 c 0 5.242 4.264 9.506 9.505 9.506 h 3.1 v 7.963 c 0 0.819 0.664 1.484 1.484 1.484 c 0.82 0 1.484 -0.664 1.484 -1.484 v -7.963 h 11.342 v 7.963 c 0 0.819 0.664 1.484 1.484 1.484 c 0.819 0 1.483 -0.664 1.483 -1.484 v -7.963 h 11.343 v 7.963 c 0 0.819 0.664 1.484 1.483 1.484 c 0.819 0 1.484 -0.664 1.484 -1.484 v -7.963 h 11.343 v 7.963 c 0 0.819 0.664 1.484 1.483 1.484 c 0.819 0 1.484 -0.664 1.484 -1.484 v -7.963 h 3.099 c 5.242 0 9.506 -4.264 9.506 -9.506 v -3.099 h 7.963 c 0.819 0 1.484 -0.664 1.484 -1.484 s -0.664 -1.484 -1.484 -1.484 h -7.963 V 53.638 h 7.963 c 0.819 0 1.484 -0.664 1.484 -1.484 s -0.664 -1.484 -1.484 -1.484 h -7.963 V 39.329 H 88.516 z M 65.308 46.018 c 3.346 4.669 4.195 8.961 2.389 12.086 c -1.544 2.675 -4.801 4.094 -9.293 4.094 c -0.755 0 -1.545 -0.04 -2.368 -0.121 c -0.416 -0.041 -0.846 -0.11 -1.273 -0.171 c -2.309 5.718 -5.796 9.302 -9.763 9.302 c -3.971 0 -7.46 -3.59 -9.769 -9.317 c -1.241 0.174 -2.443 0.284 -3.566 0.284 c -4.395 0 -7.784 -1.338 -9.362 -4.071 c -1.984 -3.435 -0.624 -8.246 3.173 -13.105 c -3.796 -4.858 -5.156 -9.669 -3.173 -13.104 c 1.983 -3.435 6.83 -4.66 12.934 -3.802 c 2.309 -5.718 5.796 -9.302 9.763 -9.302 c 3.968 0 7.454 3.584 9.763 9.302 c 0.426 -0.061 0.856 -0.13 1.272 -0.171 c 5.708 -0.565 9.856 0.847 11.661 3.973 c 1.805 3.125 0.956 7.418 -2.389 12.086 c -0.244 0.34 -0.519 0.679 -0.785 1.018 C 64.789 45.339 65.064 45.678 65.308 46.018 z" style="stroke: none; stroke-width: 1; stroke-dasharray: none; stroke-linecap: butt; stroke-linejoin: miter; stroke-miterlimit: 10; fill: rgba(7, 190, 175, 0.534); fill-rule: nonzero; opacity: 1;" transform=" matrix(1 0 0 1 0 0) " stroke-linecap="round" />
</g>
</svg>